<?xml version="1.0" encoding="UTF-8"?>
<!DOCTYPE svg PUBLIC "-//W3C//DTD SVG 1.1//EN" "http://www.w3.org/Graphics/SVG/1.1/DTD/svg11.dtd">
<!-- Creator: CorelDRAW 2019 (64-Bit Versión de evaluación) -->
<svg xmlns="http://www.w3.org/2000/svg" xml:space="preserve" width="306.111mm" height="98.4132mm" version="1.1" style="shape-rendering:geometricPrecision; text-rendering:geometricPrecision; image-rendering:optimizeQuality; fill-rule:evenodd; clip-rule:evenodd"
viewBox="0 0 2878.6 925.45"
 xmlns:xlink="http://www.w3.org/1999/xlink"
 xmlns:xodm="http://www.corel.com/coreldraw/odm/2003">
 <defs>
  <style type="text/css">
   <![CDATA[
    .str0 {stroke:black;stroke-width:1.88;stroke-miterlimit:22.9256}
    .fil0 {fill:black}
    .fil4 {fill:#FEFEFE;fill-rule:nonzero}
    .fil1 {fill:#FEFEFE;fill-rule:nonzero}
    .fil3 {fill:#FFF13C;fill-rule:nonzero}
    .fil2 {fill:#CD3539;fill-rule:nonzero}
   ]]>
  </style>
 </defs>
 <g id="Capa_x0020_1">
  <metadata id="CorelCorpID_0Corel-Layer"/>
  <g id="_1155648608">
   <path class="fil0 str0" d="M462.73 0.94l1953.14 0c255.04,0 461.79,206.75 461.79,461.79 0,255.04 -206.75,461.79 -461.79,461.79l-1953.14 0c-255.04,0 -461.79,-206.75 -461.79,-461.79 0,-255.04 206.75,-461.79 461.79,-461.79z"/>
   <g>
    <path class="fil1" d="M1126.76 85.82l0 175.32 -57.42 0 0 -60.48 -23.82 0 0 60.48 -57.42 0 0 -175.32 57.42 0 0 60.17 23.82 0 0 -60.17 57.42 0zm139.59 122.18l0 53.15 -128.89 0 0 -175.02 128.89 0 0 53.15 -71.47 0 0 11.91 59.87 0 0 45.2 -59.87 0 0 11.61 71.47 0zm163.1 -122.18l-49.18 97.43 0 77.89 -59.56 0 0 -78.5c-7.74,-15.68 -15.78,-31.87 -24.13,-48.56 -8.35,-16.7 -16.39,-32.78 -24.13,-48.26l60.48 0 18.02 39.1c2.85,-6.52 5.75,-13.13 8.71,-19.85 2.95,-6.72 5.85,-13.13 8.71,-19.24l61.09 0z"/>
    <g>
     <path class="fil2" d="M1042.06 525.49c-1.54,2.31 -3.66,5.11 -6.37,8.39 -2.7,3.28 -5.5,6.46 -8.39,9.55 -2.89,3.09 -5.79,6.08 -8.68,8.97 -2.89,2.89 -5.3,5.11 -7.23,6.65 -21.22,18.13 -44.56,31.83 -70.02,41.08 -25.46,9.26 -51.5,13.89 -78.12,13.89 -29.32,0 -58.44,-6.17 -87.38,-18.52 -28.93,-12.34 -54.2,-29.7 -75.8,-52.08 -18.52,-20.45 -32.6,-43.11 -42.24,-67.99 -9.64,-24.88 -14.47,-50.05 -14.47,-75.51 0,-29.32 6.17,-57.77 18.52,-85.35 12.34,-27.58 30.28,-51.79 53.81,-72.62 20.83,-18.13 43.88,-31.83 69.15,-41.08 25.27,-9.26 50.82,-13.89 76.67,-13.89 30.48,0 60.08,5.98 88.82,17.94 28.74,11.96 54.1,30.09 76.09,54.39l-91.43 79.85c-10.03,-10.8 -21.41,-18.81 -34.14,-24.01 -12.73,-5.21 -25.65,-7.81 -38.77,-7.81 -23.15,0 -44.36,7.91 -63.65,23.72 -10.03,8.87 -17.75,19.48 -23.15,31.83 -5.4,12.34 -8.1,24.69 -8.1,37.03 0,11.19 2.02,22.28 6.07,33.27 4.05,10.99 10.32,20.93 18.81,29.8 9.64,10.8 20.64,18.81 32.98,24.01 12.35,5.21 25.08,7.81 38.19,7.81 11.19,0 22.37,-1.93 33.56,-5.79 11.19,-3.86 21.22,-9.84 30.09,-17.94 2.7,-1.93 5.4,-4.53 8.1,-7.81 2.7,-3.28 4.63,-5.88 5.79,-7.81l101.26 70.02zm282.38 -247.08l0 332.14 -108.78 0 0 -114.57 -45.13 0 0 114.57 -108.78 0 0 -332.14 108.78 0 0 113.99 45.13 0 0 -113.99 108.78 0zm644.03 153.34c-2.32,16.2 -7.62,31.25 -15.91,45.13 -8.29,13.89 -18.52,25.85 -30.67,35.88 -12.15,10.03 -25.94,17.84 -41.37,23.43 -15.43,5.59 -31.44,8.39 -48.03,8.39 -1.93,0 -4.44,0 -7.52,0 -3.09,0 -5.59,-0.19 -7.52,-0.58l0 66.54 -108.78 0 0 -332.14 103 0c21.99,0 42.63,2.89 61.92,8.68 19.29,5.79 36.07,14.18 50.34,25.17 14.27,10.99 25.56,24.59 33.85,40.79 8.29,16.2 12.44,34.53 12.44,54.97 0,8.49 -0.58,16.39 -1.74,23.72zm-108.78 -20.54c0,-6.85 -2.51,-12.63 -7.52,-17.46 -5.02,-4.73 -11.19,-7.14 -18.52,-7.14l-16.2 0 0 49.76 16.2 0c7.33,0 13.5,-2.41 18.52,-7.14 5.02,-4.82 7.52,-10.8 7.52,-18.03zm375.54 -132.8l-93.16 184.59 0 147.55 -112.83 0 0 -148.71c-14.66,-29.7 -29.9,-60.37 -45.71,-92 -15.82,-31.63 -31.05,-62.11 -45.71,-91.43l114.57 0 34.14 74.07c5.4,-12.34 10.9,-24.88 16.49,-37.61 5.59,-12.73 11.09,-24.88 16.49,-36.46l115.73 0z"/>
     <path class="fil3" d="M1542.01 692.71l-60.18 0 0 -69.44c-25.07,-3.09 -49.47,-8.2 -73.2,-15.33 -23.72,-7.14 -47.55,-14.56 -71.46,-22.28l46.87 -111.1c16.2,5.4 32.31,10.8 48.32,16.2 16.01,5.4 32.5,9.84 49.47,13.31l0 -92c-9.64,-2.31 -19.38,-4.63 -29.22,-6.94 -9.84,-2.31 -19.48,-5.21 -28.93,-8.68 -9.45,-3.47 -18.52,-7.72 -27.2,-12.73 -8.68,-5.02 -16.49,-11.38 -23.44,-19.1 -19.67,-21.6 -29.51,-46.87 -29.51,-75.8 0,-23.15 5.69,-45.23 17.07,-66.25 11.38,-21.02 26.33,-38.29 44.85,-51.79 11.19,-8.1 23.34,-14.47 36.45,-19.1 13.12,-4.63 26.42,-7.91 39.93,-9.84l0 -69.44 60.18 0 0 70.59c22.37,3.09 43.98,8.78 64.81,17.07 20.83,8.29 41.47,17.07 61.91,26.33 -9.26,14.66 -18.32,29.32 -27.2,43.98 -8.87,14.66 -18.32,29.13 -28.35,43.4 -12.34,-4.24 -24.21,-8.97 -35.59,-14.18 -11.38,-5.21 -23.24,-9.35 -35.59,-12.44l0 74.65c18.9,4.24 37.61,10.03 56.13,17.36 18.52,7.33 35.01,16.78 49.47,28.35 14.47,11.57 26.23,25.56 35.3,41.95 9.07,16.39 13.6,35.59 13.6,57.58 0,15.43 -2.6,31.25 -7.81,47.45 -5.21,16.2 -11.86,30.86 -19.96,43.98 -6.94,10.8 -15.14,20.06 -24.59,27.77 -9.45,7.72 -19.67,14.27 -30.67,19.67 -10.99,5.4 -22.57,9.65 -34.72,12.73 -12.15,3.09 -24.4,5.21 -36.74,6.37l0 67.7zm-60.18 -444.98c-14.27,6.17 -21.41,16.97 -21.41,32.4 0,6.94 2.03,12.63 6.08,17.07 4.05,4.44 9.16,8.01 15.33,10.71l0 -60.18zm60.18 257.5c8.49,-2.7 16.3,-7.33 23.44,-13.89 7.14,-6.56 10.7,-14.85 10.7,-24.88 0,-9.64 -3.66,-17.74 -10.99,-24.3 -7.33,-6.56 -15.04,-11.38 -23.15,-14.47l0 77.54z"/>
    </g>
   </g>
   <path class="fil4" d="M483.53 748.37l0 -0.55c0,-14.26 -11.65,-25.91 -25.91,-25.91l-38.94 0c-14.26,0 -25.77,11.65 -25.77,25.91l0 0.55c0,5.48 1.65,10.56 4.52,14.67 0.96,1.51 2.06,2.88 3.29,4.11 4.66,4.52 10.97,7.27 17.96,7.27l34.55 0c7.27,0 13.3,5.9 13.3,13.16 0,7.27 -6.03,13.16 -13.3,13.16l-30.02 0c-7.27,0 -13.16,-5.9 -13.16,-13.16l-17.14 0c0,16.73 13.57,30.3 30.3,30.3l30.02 0c16.73,0 30.3,-13.57 30.3,-30.3 0,-7.27 -2.6,-13.98 -6.86,-19.19 -0.41,-0.41 -0.69,-0.82 -1.1,-1.23 -5.48,-6.03 -13.44,-9.87 -22.35,-9.87l-34.55 0c-4.8,0 -8.77,-3.98 -8.77,-8.77l0 -0.55c0,-4.8 3.98,-8.77 8.77,-8.77l38.94 0c4.8,0 8.77,3.98 8.77,8.77l0 0.55 17.14 -0.14zm58.6 69.51l0 -95.97 -17.14 0 0 95.97 17.14 0zm132.23 -69.51l0 -0.55c0,-14.26 -11.65,-25.91 -25.91,-25.91l-38.94 0c-14.26,0 -25.77,11.65 -25.77,25.91l0 0.55c0,5.48 1.65,10.56 4.52,14.67 0.96,1.51 2.06,2.88 3.29,4.11 4.66,4.52 10.97,7.27 17.96,7.27l34.55 0c7.27,0 13.3,5.9 13.3,13.16 0,7.27 -6.03,13.16 -13.3,13.16l-30.02 0c-7.27,0 -13.16,-5.9 -13.16,-13.16l-17.14 0c0,16.73 13.57,30.3 30.3,30.3l30.02 0c16.73,0 30.3,-13.57 30.3,-30.3 0,-7.27 -2.6,-13.98 -6.86,-19.19 -0.41,-0.41 -0.69,-0.82 -1.1,-1.23 -5.48,-6.03 -13.44,-9.87 -22.35,-9.87l-34.55 0c-4.8,0 -8.77,-3.98 -8.77,-8.77l0 -0.55c0,-4.8 3.98,-8.77 8.77,-8.77l38.94 0c4.8,0 8.77,3.98 8.77,8.77l0 0.55 17.14 -0.14zm36.94 -26.46l0 17.14 39.35 0 0 78.83 17.14 0 0 -78.83 39.35 0 0 -17.14 -95.83 0zm163.35 17.14l70.06 0 0 -17.14 -70.06 0c-14.26,0 -25.77,11.65 -25.77,25.91l0 44.15c0,14.26 11.52,25.91 25.77,25.91l70.06 0 0 -17.14 -70.06 0c-4.8,0 -8.77,-3.98 -8.77,-8.77l0 -18.1 61.69 0 0 -17.14 -61.69 0 0 -8.91c0,-4.8 3.98,-8.77 8.77,-8.77zm190.35 -3.98l-30.85 23.72 -30.85 -23.72 -17.14 -13.16 0 95.97 17.14 0 0 -61.15 16.86 12.89 13.98 10.83 13.98 -10.83 16.86 -12.89 0 61.15 17.14 0 0 -95.97 -17.14 13.16zm142.37 65.67l-40.17 -78.83 -40.17 78.83 -8.77 17.14 19.19 0 8.77 -17.14 20.98 -41.13 20.98 41.13 8.77 17.14 19.19 0 -8.77 -17.14zm111.52 -78.83l0 95.97 47.98 0c13.16,0 25.09,-5.35 33.73,-14.12 0.96,-0.96 1.92,-1.92 2.74,-2.88 7.13,-8.36 11.38,-19.19 11.38,-30.98 0,-26.6 -21.52,-47.98 -47.98,-47.98l-47.85 0zm17 17.14l30.85 0c17,0 30.85,13.87 30.85,30.92 0,17.05 -13.85,30.91 -30.85,30.91l-30.85 0 0 -61.83zm146.35 0l70.06 0 0 -17.14 -70.06 0c-14.26,0 -25.77,11.65 -25.77,25.91l0 44.15c0,14.26 11.52,25.91 25.77,25.91l70.06 0 0 -17.14 -70.06 0c-4.8,0 -8.77,-3.98 -8.77,-8.77l0 -18.1 61.69 0 0 -17.14 -61.69 0 0 -8.91c0,-4.8 3.98,-8.77 8.77,-8.77zm226.27 0l47.98 0 0 -17.14 -47.98 0c-26.46,0 -47.98,21.52 -47.98,47.98 0,26.46 21.52,47.98 47.98,47.98l47.98 0 0 -52.65 -47.98 0 0 17.14 30.85 0 0 18.37 -30.85 0c-17,0 -30.85,-13.85 -30.85,-30.85 0,-17 13.85,-30.85 30.85,-30.85zm115.36 0l70.06 0 0 -17.14 -70.06 0c-14.26,0 -25.77,11.65 -25.77,25.91l0 44.15c0,14.26 11.52,25.91 25.77,25.91l70.06 0 0 -17.14 -70.06 0c-4.8,0 -8.77,-3.98 -8.77,-8.77l0 -18.1 61.69 0 0 -17.14 -61.69 0 0 -8.91c0,-4.8 3.98,-8.77 8.77,-8.77zm202.28 9.32l0 -0.55c0,-14.26 -11.65,-25.91 -25.91,-25.91l-38.94 0c-14.26,0 -25.77,11.65 -25.77,25.91l0 0.55c0,5.48 1.65,10.56 4.52,14.67 0.96,1.51 2.06,2.88 3.29,4.11 4.66,4.52 10.97,7.27 17.96,7.27l34.55 0c7.27,0 13.3,5.9 13.3,13.16 0,7.27 -6.03,13.16 -13.3,13.16l-30.02 0c-7.27,0 -13.16,-5.9 -13.16,-13.16l-17.14 0c0,16.73 13.57,30.3 30.3,30.3l30.02 0c16.73,0 30.3,-13.57 30.3,-30.3 0,-7.27 -2.6,-13.98 -6.86,-19.19 -0.41,-0.41 -0.69,-0.82 -1.1,-1.23 -5.48,-6.03 -13.44,-9.87 -22.35,-9.87l-34.55 0c-4.8,0 -8.77,-3.98 -8.77,-8.77l0 -0.55c0,-4.8 3.98,-8.77 8.77,-8.77l38.94 0c4.8,0 8.77,3.98 8.77,8.77l0 0.55 17.14 -0.14zm36.94 -26.46l0 17.14 39.35 0 0 78.83 17.14 0 0 -78.83 39.35 0 0 -17.14 -95.83 0zm154.57 95.97l0 -95.97 -17.14 0 0 95.97 17.14 0zm86.02 -95.97c-26.46,0 -47.98,21.52 -47.98,47.98 0,26.46 21.52,47.98 47.98,47.98 26.46,0 47.98,-21.52 47.98,-47.98 0,-26.46 -21.52,-47.98 -47.98,-47.98zm0 78.83c-17,0 -30.85,-13.85 -30.85,-30.85 0,-17 13.85,-30.85 30.85,-30.85 17,0 30.85,13.85 30.85,30.85 0,17 -13.85,30.85 -30.85,30.85zm164.85 -78.83l0 61.05 -61.69 -47.5 -17.14 -13.14 0 95.56 17.14 0 0 -60.64 61.69 47.5 17.14 13.14 0 -95.83 -17.14 -0.14z"/>
  </g>
 </g>
</svg>
