<?xml version="1.0" encoding="UTF-8"?>
<!DOCTYPE svg PUBLIC "-//W3C//DTD SVG 1.1//EN" "http://www.w3.org/Graphics/SVG/1.1/DTD/svg11.dtd">
<!-- Creator: CorelDRAW 2019 (64-Bit Versión de evaluación) -->
<svg xmlns="http://www.w3.org/2000/svg" xml:space="preserve" width="347.13mm" height="170.616mm" version="1.1" style="shape-rendering:geometricPrecision; text-rendering:geometricPrecision; image-rendering:optimizeQuality; fill-rule:evenodd; clip-rule:evenodd"
viewBox="0 0 5777.76 2839.79"
 xmlns:xlink="http://www.w3.org/1999/xlink"
 xmlns:xodm="http://www.corel.com/coreldraw/odm/2003">
 <defs>
  <style type="text/css">
   <![CDATA[
    .fil0 {fill:#FEFEFE;fill-rule:nonzero}
    .fil2 {fill:#FFF13C;fill-rule:nonzero}
    .fil1 {fill:#CD3539;fill-rule:nonzero}
   ]]>
  </style>
 </defs>
 <g id="Capa_x0020_1">
  <metadata id="CorelCorpID_0Corel-Layer"/>
  <g id="_865185376">
   <path class="fil0" d="M1895.09 84.67l0 562.69 -184.29 0 0 -194.1 -76.46 0 0 194.1 -184.29 0 0 -562.69 184.29 0 0 193.12 76.46 0 0 -193.12 184.29 0zm448 392.12l0 170.57 -413.68 0 0 -561.71 413.68 0 0 170.57 -229.39 0 0 38.23 192.14 0 0 145.08 -192.14 0 0 37.25 229.39 0zm523.48 -392.12l-157.83 312.71 0 249.98 -191.16 0 0 -251.94c-24.84,-50.32 -50.65,-102.28 -77.44,-155.87 -26.79,-53.59 -52.61,-105.22 -77.44,-154.89l194.1 0 57.84 125.48c9.15,-20.91 18.46,-42.15 27.94,-63.72 9.48,-21.57 18.79,-42.15 27.94,-61.76l196.06 0z"/>
   <g>
    <path class="fil1" d="M1613.96 1454.14c-4.95,7.43 -11.76,16.4 -20.43,26.93 -8.67,10.53 -17.64,20.74 -26.93,30.64 -9.29,9.9 -18.57,19.5 -27.86,28.79 -9.29,9.28 -17.02,16.4 -23.21,21.36 -68.1,58.19 -143,102.14 -224.72,131.86 -81.71,29.71 -165.29,44.57 -250.71,44.57 -94.09,0 -187.57,-19.81 -280.43,-59.43 -92.86,-39.62 -173.95,-95.33 -243.28,-167.14 -59.43,-65.62 -104.62,-138.36 -135.57,-218.21 -30.95,-79.86 -46.43,-160.64 -46.43,-242.36 0,-94.09 19.81,-185.4 59.43,-273.93 39.62,-88.52 97.19,-166.21 172.71,-233.07 66.86,-58.19 140.83,-102.14 221.93,-131.86 81.1,-29.71 163.12,-44.57 246.07,-44.57 97.81,0 192.83,19.19 285.07,57.57 92.24,38.38 173.64,96.57 244.21,174.57l-293.43 256.28c-32.19,-34.67 -68.71,-60.36 -109.57,-77.07 -40.86,-16.71 -82.33,-25.07 -124.43,-25.07 -74.29,0 -142.38,25.38 -204.28,76.14 -32.19,28.48 -56.95,62.52 -74.29,102.14 -17.33,39.62 -26,79.24 -26,118.86 0,35.91 6.5,71.5 19.5,106.79 13,35.29 33.12,67.17 60.36,95.65 30.95,34.66 66.24,60.36 105.86,77.07 39.62,16.71 80.48,25.07 122.57,25.07 35.9,0 71.81,-6.19 107.71,-18.57 35.9,-12.38 68.09,-31.57 96.57,-57.57 8.67,-6.19 17.33,-14.55 26,-25.07 8.67,-10.52 14.86,-18.88 18.57,-25.07l325 224.72zm906.28 -793l0 1066 -349.14 0 0 -367.71 -144.86 0 0 367.71 -349.14 0 0 -1066 349.14 0 0 365.86 144.86 0 0 -365.86 349.14 0zm2067 492.14c-7.43,52 -24.45,100.29 -51.07,144.86 -26.62,44.57 -59.43,82.95 -98.43,115.14 -39,32.19 -83.26,57.26 -132.79,75.21 -49.52,17.95 -100.9,26.93 -154.14,26.93 -6.19,0 -14.24,0 -24.14,0 -9.91,0 -17.95,-0.62 -24.15,-1.86l0 213.57 -349.14 0 0 -1066 330.57 0c70.57,0 136.81,9.29 198.71,27.86 61.9,18.57 115.76,45.5 161.57,80.79 45.81,35.29 82.02,78.93 108.64,130.93 26.62,52 39.93,110.81 39.93,176.43 0,27.24 -1.86,52.62 -5.57,76.14zm-349.14 -65.93c0,-21.98 -8.05,-40.55 -24.14,-56.02 -16.1,-15.17 -35.91,-22.91 -59.43,-22.91l-52 0 0 159.72 52 0c23.52,0 43.33,-7.74 59.43,-22.91 16.1,-15.48 24.14,-34.67 24.14,-57.88zm1205.28 -426.21l-299 592.43 0 473.57 -362.14 0 0 -477.28c-47.05,-95.33 -95.95,-193.76 -146.72,-295.29 -50.76,-101.52 -99.66,-199.33 -146.71,-293.43l367.71 0 109.57 237.71c17.34,-39.62 34.98,-79.86 52.93,-120.71 17.95,-40.86 35.6,-79.86 52.93,-117l371.43 0z"/>
    <path class="fil2" d="M3218.53 1990.85l-193.14 0 0 -222.85c-80.47,-9.91 -158.78,-26.31 -234.93,-49.21 -76.14,-22.9 -152.59,-46.74 -229.36,-71.5l150.43 -356.57c52,17.34 103.69,34.67 155.07,52 51.38,17.34 104.31,31.57 158.78,42.71l0 -295.28c-30.95,-7.43 -62.21,-14.86 -93.78,-22.29 -31.57,-7.43 -62.52,-16.72 -92.86,-27.86 -30.33,-11.14 -59.43,-24.76 -87.29,-40.86 -27.86,-16.1 -52.93,-36.52 -75.21,-61.29 -63.15,-69.33 -94.71,-150.43 -94.71,-243.29 0,-74.29 18.26,-145.17 54.78,-212.64 36.52,-67.48 84.5,-122.88 143.93,-166.22 35.91,-26 74.9,-46.43 117,-61.28 42.1,-14.86 84.81,-25.38 128.14,-31.57l0 -222.86 193.14 0 0 226.57c71.81,9.91 141.14,28.17 208,54.78 66.85,26.62 133.09,54.78 198.71,84.5 -29.72,47.05 -58.81,94.1 -87.29,141.14 -28.48,47.05 -58.81,93.48 -91,139.29 -39.62,-13.62 -77.69,-28.79 -114.21,-45.5 -36.52,-16.71 -74.6,-30.02 -114.22,-39.93l0 239.57c60.67,13.62 120.71,32.19 180.14,55.71 59.43,23.52 112.36,53.86 158.78,91 46.43,37.14 84.19,82.02 113.28,134.64 29.1,52.62 43.64,114.21 43.64,184.79 0,49.52 -8.36,100.29 -25.07,152.29 -16.71,52 -38.07,99.04 -64.07,141.14 -22.29,34.66 -48.6,64.38 -78.93,89.14 -30.33,24.76 -63.14,45.81 -98.43,63.14 -35.29,17.34 -72.43,30.96 -111.43,40.86 -39,9.91 -78.31,16.72 -117.93,20.43l0 217.28zm-193.14 -1428.14c-45.81,19.81 -68.71,54.48 -68.71,104 0,22.29 6.5,40.55 19.5,54.78 13,14.24 29.41,25.69 49.21,34.36l0 -193.14zm193.14 826.43c27.24,-8.67 52.31,-23.52 75.21,-44.57 22.9,-21.05 34.36,-47.67 34.36,-79.86 0,-30.95 -11.76,-56.95 -35.28,-78 -23.53,-21.05 -48.28,-36.52 -74.29,-46.43l0 248.85z"/>
   </g>
   <path class="fil0" d="M250.19 2647.89l0 -1.51c0,-39.36 -32.17,-71.54 -71.54,-71.54l-107.49 0c-39.36,0 -71.16,32.17 -71.16,71.54l0 1.51c0,15.14 4.54,29.14 12.49,40.5 2.65,4.16 5.68,7.95 9.08,11.36 12.87,12.49 30.28,20.06 49.59,20.06l95.38 0c20.06,0 36.72,16.28 36.72,36.34 0,20.06 -16.65,36.33 -36.72,36.33l-82.89 0c-20.06,0 -36.34,-16.27 -36.34,-36.33l-47.31 0c0,46.17 37.47,83.65 83.65,83.65l82.89 0c46.18,0 83.65,-37.47 83.65,-83.65 0,-20.06 -7.19,-38.61 -18.93,-52.99 -1.13,-1.13 -1.89,-2.27 -3.03,-3.41 -15.14,-16.65 -37.09,-27.25 -61.7,-27.25l-95.38 0c-13.25,0 -24.23,-10.98 -24.23,-24.22l0 -1.51c0,-13.25 10.98,-24.23 24.23,-24.23l107.49 0c13.25,0 24.22,10.98 24.22,24.23l0 1.51 47.31 -0.38zm161.79 191.9l0 -264.95 -47.31 0 0 264.95 47.31 0zm365.05 -191.9l0 -1.51c0,-39.36 -32.17,-71.54 -71.54,-71.54l-107.49 0c-39.36,0 -71.16,32.17 -71.16,71.54l0 1.51c0,15.14 4.54,29.14 12.49,40.5 2.65,4.16 5.68,7.95 9.08,11.36 12.87,12.49 30.28,20.06 49.59,20.06l95.38 0c20.06,0 36.72,16.28 36.72,36.34 0,20.06 -16.65,36.33 -36.72,36.33l-82.89 0c-20.06,0 -36.34,-16.27 -36.34,-36.33l-47.31 0c0,46.17 37.47,83.65 83.65,83.65l82.89 0c46.18,0 83.65,-37.47 83.65,-83.65 0,-20.06 -7.19,-38.61 -18.93,-52.99 -1.14,-1.13 -1.89,-2.27 -3.03,-3.41 -15.14,-16.65 -37.09,-27.25 -61.7,-27.25l-95.38 0c-13.25,0 -24.23,-10.98 -24.23,-24.22l0 -1.51c0,-13.25 10.98,-24.23 24.23,-24.23l107.49 0c13.25,0 24.22,10.98 24.22,24.23l0 1.51 47.31 -0.38zm101.99 -73.05l0 47.31 108.63 0 0 217.64 47.31 0 0 -217.64 108.63 0 0 -47.31 -264.57 0zm450.97 47.31l193.41 0 0 -47.31 -193.41 0c-39.36,0 -71.16,32.17 -71.16,71.54l0 121.88c0,39.36 31.8,71.54 71.16,71.54l193.41 0 0 -47.31 -193.41 0c-13.25,0 -24.23,-10.98 -24.23,-24.22l0 -49.96 170.33 0 0 -47.31 -170.33 0 0 -24.6c0,-13.25 10.98,-24.22 24.23,-24.22zm525.53 -10.98l-85.16 65.48 -85.16 -65.48 -47.31 -36.33 0 264.95 47.31 0 0 -168.81 46.55 35.58 38.61 29.9 38.61 -29.9 46.55 -35.58 0 168.81 47.31 0 0 -264.95 -47.31 36.33zm393.06 181.3l-110.9 -217.64 -110.9 217.64 -24.22 47.31 52.99 0 24.22 -47.31 57.91 -113.55 57.91 113.55 24.23 47.31 52.99 0 -24.22 -47.31zm307.89 -217.64l0 264.95 132.48 0c36.33,0 69.26,-14.76 93.11,-38.98 2.65,-2.65 5.3,-5.3 7.57,-7.95 19.68,-23.09 31.42,-52.99 31.42,-85.54 0,-73.43 -59.42,-132.47 -132.47,-132.47l-132.1 0zm46.94 47.31l85.16 0c46.93,0 85.16,38.29 85.16,85.35 0,47.06 -38.23,85.35 -85.16,85.35l-85.16 0 0 -170.7zm404.03 0l193.41 0 0 -47.31 -193.41 0c-39.36,0 -71.16,32.17 -71.16,71.54l0 121.88c0,39.36 31.8,71.54 71.16,71.54l193.41 0 0 -47.31 -193.41 0c-13.25,0 -24.22,-10.98 -24.22,-24.22l0 -49.96 170.32 0 0 -47.31 -170.32 0 0 -24.6c0,-13.25 10.98,-24.22 24.22,-24.22zm624.7 0l132.47 0 0 -47.31 -132.47 0c-73.05,0 -132.48,59.43 -132.48,132.47 0,73.05 59.43,132.47 132.48,132.47l132.47 0 0 -145.34 -132.47 0 0 47.31 85.16 0 0 50.72 -85.16 0c-46.93,0 -85.16,-38.23 -85.16,-85.16 0,-46.93 38.23,-85.16 85.16,-85.16zm318.49 0l193.41 0 0 -47.31 -193.41 0c-39.36,0 -71.16,32.17 -71.16,71.54l0 121.88c0,39.36 31.8,71.54 71.16,71.54l193.41 0 0 -47.31 -193.41 0c-13.25,0 -24.23,-10.98 -24.23,-24.22l0 -49.96 170.33 0 0 -47.31 -170.33 0 0 -24.6c0,-13.25 10.98,-24.22 24.23,-24.22zm558.46 25.74l0 -1.51c0,-39.36 -32.17,-71.54 -71.54,-71.54l-107.49 0c-39.36,0 -71.16,32.17 -71.16,71.54l0 1.51c0,15.14 4.54,29.14 12.49,40.5 2.65,4.16 5.68,7.95 9.08,11.36 12.87,12.49 30.28,20.06 49.59,20.06l95.38 0c20.06,0 36.71,16.28 36.71,36.34 0,20.06 -16.65,36.33 -36.71,36.33l-82.89 0c-20.06,0 -36.34,-16.27 -36.34,-36.33l-47.31 0c0,46.17 37.47,83.65 83.65,83.65l82.89 0c46.18,0 83.65,-37.47 83.65,-83.65 0,-20.06 -7.19,-38.61 -18.93,-52.99 -1.14,-1.13 -1.89,-2.27 -3.03,-3.41 -15.14,-16.65 -37.09,-27.25 -61.7,-27.25l-95.38 0c-13.25,0 -24.22,-10.98 -24.22,-24.22l0 -1.51c0,-13.25 10.98,-24.23 24.22,-24.23l107.49 0c13.25,0 24.22,10.98 24.22,24.23l0 1.51 47.31 -0.38zm101.99 -73.05l0 47.31 108.63 0 0 217.64 47.31 0 0 -217.64 108.63 0 0 -47.31 -264.57 0zm426.74 264.95l0 -264.95 -47.31 0 0 264.95 47.31 0zm237.5 -264.95c-73.05,0 -132.47,59.43 -132.47,132.47 0,73.05 59.43,132.47 132.47,132.47 73.05,0 132.47,-59.42 132.47,-132.47 0,-73.05 -59.42,-132.47 -132.47,-132.47zm0 217.64c-46.93,0 -85.16,-38.23 -85.16,-85.16 0,-46.93 38.23,-85.16 85.16,-85.16 46.94,0 85.16,38.23 85.16,85.16 0,46.93 -38.23,85.16 -85.16,85.16zm455.13 -217.64l0 168.56 -170.33 -131.15 -47.31 -36.27 0 263.81 47.31 0 0 -167.42 170.33 131.15 47.31 36.27 0 -264.57 -47.31 -0.38z"/>
  </g>
 </g>
</svg>
